<svg xmlns="http://www.w3.org/2000/svg"  viewBox="0 0 48 48" width="240px" height="240px" baseProfile="basic"><polygon fill="#20d789" points="31,10 21,4 7,10 4,36 18,44 23,39"/><polygon fill="#a5e66e" points="34,4 36,16 24,14"/><polygon fill="#0bc6ef" points="44,20 33.984,12.071 29,29 41,28"/><polygon fill="#f0f74f" points="17,36 16,40 32,44 44,40 39,21 22,30"/><rect width="25" height="25" x="12" y="12" fill="#212121"/><rect width="2" height="11" x="14" y="15" fill="#fafafa"/><path fill="#fafafa" d="M18.5,15H14v2h4.5c0.828,0,1.5,0.672,1.5,1.5S19.328,20,18.5,20H14v2h4.5c1.933,0,3.5-1.567,3.5-3.5	S20.433,15,18.5,15z"/><rect width="10" height="2" x="14" y="32" fill="#fafafa"/><path fill="#fafafa" d="M31.037,22.899C30.399,23.574,29.502,24,28.5,24c-1.933,0-3.5-1.567-3.5-3.5s1.567-3.5,3.5-3.5	c0.958,0,1.824,0.386,2.456,1.01l1.251-1.564C31.229,15.551,29.93,15,28.5,15c-3.038,0-5.5,2.462-5.5,5.5s2.462,5.5,5.5,5.5	c1.488,0,2.836-0.594,3.826-1.554L31.037,22.899z"/></svg>